<?xml version="1.0" encoding="UTF-8" standalone="no"?>
<!DOCTYPE svg PUBLIC "-//W3C//DTD SVG 1.1//EN" "http://www.w3.org/Graphics/SVG/1.1/DTD/svg11.dtd">
<svg width="100%" height="100%" viewBox="0 0 2481 3508" version="1.1" xmlns="http://www.w3.org/2000/svg" xmlns:xlink="http://www.w3.org/1999/xlink" xml:space="preserve" xmlns:serif="http://www.serif.com/" style="fill-rule:evenodd;clip-rule:evenodd;stroke-linejoin:round;stroke-miterlimit:2;">
    <rect x="2.624" y="2.661" width="2481.51" height="3503.81" style="fill:rgb(231,232,233);"/>
    <g transform="matrix(1.27053,0,0,1.27053,-213.456,-172.372)">
        <path d="M493.983,1103.23L606.108,1103.23L606.108,903.992L708.746,903.992C840.708,903.992 916.608,812.567 916.608,701.305C916.608,590.042 840.708,499.48 708.746,499.48L493.983,499.48L493.983,1103.23ZM606.108,797.905L606.108,604.705L707.883,604.705C757.908,604.705 804.483,630.58 804.483,701.305C804.483,770.305 757.908,797.905 707.883,797.905L606.108,797.905Z" style="fill:rgb(35,31,32);fill-rule:nonzero;"/>
    </g>
    <g transform="matrix(1.27053,0,0,1.27053,-213.456,1606.33)">
        <path d="M493.983,1103.23L606.108,1103.23L606.108,903.992L708.746,903.992C840.708,903.992 916.608,812.567 916.608,701.305C916.608,590.042 840.708,499.48 708.746,499.48L493.983,499.48L493.983,1103.23ZM606.108,797.905L606.108,604.705L707.883,604.705C757.908,604.705 804.483,630.58 804.483,701.305C804.483,770.305 757.908,797.905 707.883,797.905L606.108,797.905Z" style="fill:rgb(35,31,32);fill-rule:nonzero;"/>
    </g>
    <g transform="matrix(1.27053,0,0,1.27053,970.189,-172.372)">
        <path d="M649.233,1103.23L761.358,1103.23L761.358,607.292L930.408,607.292L930.408,499.48L480.183,499.48L480.183,607.292L649.233,607.292L649.233,1103.23Z" style="fill:rgb(35,31,32);fill-rule:nonzero;"/>
    </g>
    <g transform="matrix(1.27053,0,0,1.27053,970.189,1608.28)">
        <path d="M481.046,1103.23L610.421,1103.23L712.196,892.78L813.971,1103.23L943.346,1103.23L943.346,1094.61L782.058,794.455L934.721,508.105L934.721,499.48L805.346,499.48L712.196,696.13L619.046,499.48L489.671,499.48L489.671,508.105L642.333,794.455L481.046,1094.61L481.046,1103.23Z" style="fill:rgb(35,31,32);fill-rule:nonzero;"/>
    </g>
</svg>
