<?xml version="1.0" encoding="UTF-8" standalone="no"?>
<!DOCTYPE svg PUBLIC "-//W3C//DTD SVG 1.1//EN" "http://www.w3.org/Graphics/SVG/1.1/DTD/svg11.dtd">
<svg width="100%" height="100%" viewBox="0 0 2481 3508" version="1.1" xmlns="http://www.w3.org/2000/svg" xmlns:xlink="http://www.w3.org/1999/xlink" xml:space="preserve" xmlns:serif="http://www.serif.com/" style="fill-rule:evenodd;clip-rule:evenodd;stroke-linejoin:round;stroke-miterlimit:2;">
    <g transform="matrix(1.16219,0,0,1.16219,-87.8016,-80.6248)">
        <path d="M398.629,1175.45L863.361,1175.45L863.361,1056.17L566.582,1056.17L725.946,930.206C821.373,854.818 852.864,791.836 852.864,713.585C852.864,592.392 767.934,498.873 622.884,498.873C474.971,498.873 396.72,601.935 396.72,718.357L516.005,718.357C516.005,675.414 543.679,614.341 622.884,614.341C699.226,614.341 730.717,663.009 730.717,713.585C730.717,756.528 709.723,793.744 643.878,848.138L398.629,1053.31L398.629,1175.45Z" style="fill:rgb(35,31,32);fill-rule:nonzero;"/>
    </g>
    <g transform="matrix(1.16219,0,0,1.16219,-87.8016,1671.9)">
        <path d="M398.629,1175.45L863.361,1175.45L863.361,1056.17L566.582,1056.17L725.946,930.206C821.373,854.818 852.864,791.836 852.864,713.585C852.864,592.392 767.934,498.873 622.884,498.873C474.971,498.873 396.72,601.935 396.72,718.357L516.005,718.357C516.005,675.414 543.679,614.341 622.884,614.341C699.226,614.341 730.717,663.009 730.717,713.585C730.717,756.528 709.723,793.744 643.878,848.138L398.629,1053.31L398.629,1175.45Z" style="fill:rgb(35,31,32);fill-rule:nonzero;"/>
    </g>
    <g transform="matrix(1.16219,0,0,1.16219,1142.31,1671.9)">
        <path d="M636.244,1184.04C781.294,1184.04 879.584,1078.12 879.584,951.2C879.584,836.687 792.745,730.762 655.329,730.762C578.987,730.762 532.228,767.025 510.279,794.699C514.096,665.871 575.17,613.386 644.832,613.386C713.54,613.386 742.168,660.146 746.94,685.911L868.133,685.911C855.727,589.529 776.522,498.873 644.832,498.873C464.474,498.873 381.452,664.917 381.452,851.955C381.452,1040.9 468.291,1184.04 636.244,1184.04ZM515.051,951.2C515.051,876.767 571.353,835.733 637.198,835.733C701.135,835.733 758.391,876.767 758.391,951.2C758.391,1027.54 700.18,1069.53 637.198,1069.53C578.033,1069.53 515.051,1027.54 515.051,951.2Z" style="fill:rgb(35,31,32);fill-rule:nonzero;"/>
    </g>
    <g transform="matrix(1.16219,0,0,1.16219,1142.31,-69.5105)">
        <path d="M630.518,1184.04C784.157,1184.04 894.853,1066.67 894.853,855.772L894.853,827.144C894.853,625.792 784.157,498.873 630.518,498.873C476.88,498.873 366.184,625.792 366.184,827.144L366.184,855.772C366.184,1066.67 476.88,1184.04 630.518,1184.04ZM487.377,852.91L487.377,830.007C487.377,717.402 531.273,613.386 630.518,613.386C670.598,613.386 701.135,630.563 724.037,657.283L489.285,895.852C488.331,882.492 487.377,867.224 487.377,852.91ZM531.273,1018L769.842,774.659C772.705,792.79 773.66,810.921 773.66,830.007L773.66,852.91C773.66,965.514 729.763,1069.53 630.518,1069.53C587.576,1069.53 554.176,1049.49 531.273,1018Z" style="fill:rgb(35,31,32);fill-rule:nonzero;"/>
    </g>
</svg>
